<svg data-name="Layer 1" xmlns="http://www.w3.org/2000/svg" viewBox="0 0 41 41"><title>houzz</title><path d="M20.5 0A20.5 20.5 0 1 0 41 20.5 20.52 20.52 0 0 0 20.5 0zm0 40A19.5 19.5 0 1 1 40 20.5 19.52 19.52 0 0 1 20.5 40z" fill="#c1c2c3"/><path d="M25.35 15.67a.29.29 0 0 0-.3 0l-4.26 2.51v-5.4a.29.29 0 0 0-.43-.26l-4.71 2.34a.29.29 0 0 0-.16.26v5.57a.29.29 0 0 0 .08.2.29.29 0 0 0-.08.2v5.17a.29.29 0 0 0 .44.25L20.21 24v5.19a.29.29 0 0 0 .29.29h.12l4.71-2.05a.29.29 0 0 0 .18-.27v-5.87a.26.26 0 0 1 0-.19v-5.17a.29.29 0 0 0-.16-.26zm-9.26-.35l4.12-2.05v5.2l-4.12 1.8zm0 10.44v-4.14l3.52 2.07zm4.28-2.39h-.07l-4.25-2.51 4.56-2a.3.3 0 0 0 .13-.11l4 2.37zM24.91 27l-4.12 1.8v-4.98l4.12-2.05zm0-6.38l-3.51-2.11 3.52-2.07z" fill="#313539"/></svg>