<svg data-name="Layer 1" xmlns="http://www.w3.org/2000/svg" viewBox="0 0 41 41"><title>instagram</title><path d="M20.5 0A20.5 20.5 0 1 0 41 20.5 20.52 20.52 0 0 0 20.5 0zm0 40A19.5 19.5 0 1 1 40 20.5 19.52 19.52 0 0 1 20.5 40z" fill="#c1c2c3"/><path d="M22.93 14.5h-4.86a3.58 3.58 0 0 0-3.57 3.57v4.85a3.58 3.58 0 0 0 3.57 3.58h4.85a3.58 3.58 0 0 0 3.58-3.57v-4.86a3.58 3.58 0 0 0-3.57-3.57zm0 10.79h-4.86a2.36 2.36 0 0 1-2.36-2.36v-4.86a2.36 2.36 0 0 1 2.36-2.36h4.85a2.36 2.36 0 0 1 2.36 2.36v4.85a2.36 2.36 0 0 1-2.35 2.37z" fill="#313539"/><path d="M20.5 17.5a3 3 0 1 0 2.12.88 3 3 0 0 0-2.12-.88zm0 4.83a1.83 1.83 0 1 1 1.83-1.83 1.83 1.83 0 0 1-1.83 1.83z" fill="#313539"/><circle cx="23.5" cy="17.5" r="1" fill="#313539"/></svg>